<svg xmlns="http://www.w3.org/2000/svg" xmlns:xlink="http://www.w3.org/1999/xlink" width="926.84" height="293.93" viewBox="0 0 926.84 293.93"><defs><style>.a{clip-path:url(#c);}.b{stroke:rgba(0,0,0,0);stroke-miterlimit:10;fill:url(#a);}</style><linearGradient id="a" x1="0.125" y1="0.734" x2="0.916" y2="0.647" gradientUnits="objectBoundingBox"><stop offset="0" stop-color="#7e9bff"/><stop offset="1" stop-color="#8eedff"/></linearGradient><clipPath id="c"><rect width="926.84" height="293.93"/></clipPath></defs><g id="b" class="a"><path class="b" d="M706.744,680.883a52,52,0,0,1-11.2-20.2q-3.8-12.2-3.8-29v-227.2q0-12.8,24-12.8h11.2q24,0,24,12.8v228q0,8.8,3.4,13t11,4.2a24.786,24.786,0,0,0,6-.8,21.91,21.91,0,0,1,4.8-.8q4,0,6.8,6.6a69.776,69.776,0,0,1,4.2,13.6q.993,4.963,1.282,7.211c-25.219,4.433-50.629,8.072-76.522,10.121A42.52,42.52,0,0,1,706.744,680.883ZM533.513,666.8l-.169-.315-.047.244a528.446,528.446,0,0,1-55.953-22.321V404.483q0-12.8,24-12.8h11.2q24,0,24,12.8v88.8a83.169,83.169,0,0,1,16.6-8.4q10.2-4,24.2-4,40.4,0,62.4,29.4t22,78.2q0,34.8-9.6,59t-26.6,36.6q-.985.718-1.986,1.4A402.467,402.467,0,0,1,533.513,666.8Zm14.831-136.716a66.192,66.192,0,0,0-11.8,5.2v89.2a73.021,73.021,0,0,0,13.6,16.4,27.707,27.707,0,0,0,19.2,7.2q16.4,0,24.4-15.2t8-44.4q0-30-9.2-45.4t-28-15.4A49.911,49.911,0,0,0,548.344,530.083Zm273.8,108a90.32,90.32,0,0,1,3.8-25.4q3.8-13,15.4-24.2t34.6-18q23-6.8,61-6.8v-13.2q0-11.6-7.4-17.2t-23.8-5.6a86.956,86.956,0,0,0-25,3.2,119.794,119.794,0,0,0-17.2,6.4q-6.6,3.2-9,3.2-4,0-9-6.2a60.982,60.982,0,0,1-8.4-14q-3.4-7.8-3.4-11.8,0-6.8,9.8-13.2t27.2-10.4a176.523,176.523,0,0,1,39.4-4q31.6,0,50.4,8.6t27.2,23.6q8.4,15,8.4,34.6v75.2q0,8.184.186,14.849c-58.263,6.336-113.122,19.148-167.961,30.174A69.058,69.058,0,0,1,822.144,638.083Zm90-33.6a65.072,65.072,0,0,0-17.4,5.6,25.259,25.259,0,0,0-10.4,9.2,24.177,24.177,0,0,0-3.4,12.8,17.082,17.082,0,0,0,5,12.6q5,5,15,5a35.379,35.379,0,0,0,21.4-7.2,44.434,44.434,0,0,0,14.6-18v-22A133.166,133.166,0,0,0,912.144,604.483Zm318.016,32.008a91.028,91.028,0,0,1,3.784-23.808q3.8-13,15.4-24.2t34.6-18q23-6.8,61-6.8v-13.2q0-11.6-7.4-17.2t-23.8-5.6a86.951,86.951,0,0,0-25,3.2,119.708,119.708,0,0,0-17.2,6.4q-6.6,3.2-9,3.2-4,0-9-6.2a60.989,60.989,0,0,1-8.4-14q-3.4-7.8-3.4-11.8,0-6.8,9.8-13.2t27.2-10.4a176.514,176.514,0,0,1,39.4-4q31.6,0,50.4,8.6t27.2,23.6q8.4,15,8.4,34.6v75.2q0,3.641.037,6.982a579.176,579.176,0,0,1-67.108,6.623,43.862,43.862,0,0,0,7.871-12.005v-22a133.157,133.157,0,0,0-24.8,2,65.079,65.079,0,0,0-17.4,5.6,25.251,25.251,0,0,0-10.4,9.2,24.169,24.169,0,0,0-3.4,12.8,19.477,19.477,0,0,0,.722,5.4h-.031C1270.128,637.485,1250.243,637.068,1230.16,636.491Zm-156.311-3.256-45.7-133.952a31.47,31.47,0,0,0-1-3.8,10.786,10.786,0,0,1-.6-3.4q0-8.8,24.4-8.8h13.2a52.2,52.2,0,0,1,14.8,1.8q6,1.8,7.6,6.6l20,63.2q5.6,17.2,9.4,33.8t5.4,29.4h1.6q1.6-12.4,5.2-28.6t9.6-34.6l20-63.2q1.6-4.8,7.6-6.6a52.2,52.2,0,0,1,14.8-1.8h10q24,0,24,8.8a28.66,28.66,0,0,1-1.2,7.2l-46.12,135.169C1135.617,633.48,1104.4,632.763,1073.849,633.235Z" transform="translate(-477.344 -391.683)"/></g></svg>